<?xml version="1.0" encoding="utf-8"?>
<!-- Generator: Adobe Illustrator 22.0.1, SVG Export Plug-In . SVG Version: 6.00 Build 0)  -->
<svg version="1.1" id="Layer_1" xmlns="http://www.w3.org/2000/svg" xmlns:xlink="http://www.w3.org/1999/xlink" x="0px" y="0px"
	 width="512px" height="512px" viewBox="0 0 512 512" style="enable-background:new 0 0 512 512;" xml:space="preserve">
<style type="text/css">
	.st0{fill:#304051;}
</style>
<path class="st0" d="M321.6,446.4c-63.3,0-122.3-31.4-157.8-83.9c-7.2-10.7-4.4-25.1,6.3-32.3c10.7-7.2,25.1-4.4,32.3,6.3
	c26.8,39.7,71.4,63.4,119.3,63.4c79.3,0,143.8-64.5,143.8-143.8S401,112.3,321.7,112.3c-48,0-92.7,23.8-119.5,63.7
	c-7.2,10.7-21.6,13.5-32.3,6.3s-13.5-21.6-6.3-32.3c35.5-52.8,94.6-84.3,158.1-84.3C426.6,65.6,512,151,512,256
	S426.6,446.4,321.6,446.4z"/>
<path class="st0" d="M349.1,232.7H79.5l30.1-30.1c9.1-9.1,9.1-23.8,0-32.9s-23.8-9.1-32.9,0L6.8,239.5l-0.1,0.1
	c-0.5,0.5-1,1-1.4,1.6c-0.1,0.2-0.3,0.4-0.4,0.5c-0.3,0.4-0.7,0.9-1,1.3c-0.1,0.2-0.2,0.3-0.3,0.5c-0.3,0.5-0.6,1-0.9,1.5
	c-0.1,0.1-0.1,0.2-0.2,0.3c-0.3,0.6-0.6,1.1-0.8,1.7c0,0.1-0.1,0.2-0.1,0.2c-0.2,0.6-0.5,1.3-0.7,1.9c0,0.1,0,0.2-0.1,0.3
	c-0.2,0.6-0.4,1.3-0.5,1.9c0,0.2-0.1,0.4-0.1,0.6C0.1,252.4,0,253,0,253.6c0,0.8,0,1.6,0,2.4c0,0.8,0,1.6,0.1,2.3
	c0.1,0.6,0.2,1.1,0.3,1.7c0,0.2,0,0.4,0.1,0.6c0.1,0.7,0.3,1.3,0.5,2c0,0.1,0,0.2,0.1,0.2c0.2,0.7,0.4,1.3,0.7,1.9
	c0,0.1,0,0.1,0.1,0.2c0.2,0.6,0.5,1.2,0.8,1.8c0.1,0.1,0.1,0.2,0.1,0.3c0.3,0.5,0.6,1,0.9,1.5c0.1,0.1,0.2,0.3,0.3,0.4
	c0.3,0.5,0.7,0.9,1,1.4c0.1,0.1,0.2,0.3,0.3,0.4c0.5,0.6,1,1.2,1.5,1.7l69.8,69.8c4.5,4.5,10.5,6.8,16.5,6.8s11.9-2.3,16.5-6.8
	c9.1-9.1,9.1-23.8,0-32.9l-30.1-30.1h269.6c12.9,0,23.3-10.4,23.3-23.3S361.9,232.7,349.1,232.7z"/>
</svg>
