<?xml version="1.0" encoding="iso-8859-1"?>
<!-- Generator: Adobe Illustrator 19.0.0, SVG Export Plug-In . SVG Version: 6.00 Build 0)  -->
<svg version="1.1" id="Capa_1" xmlns="http://www.w3.org/2000/svg" xmlns:xlink="http://www.w3.org/1999/xlink" x="0px" y="0px"
	 viewBox="0 0 511 511" style="enable-background:new 0 0 511 511;" xml:space="preserve">
<g>
	<path d="M383.271,301.032c-32.502-54.919-69.341-117.166-72.277-189.835c-0.018-0.451-0.083-0.889-0.176-1.314
		c-0.965-27.303-6.014-52.771-14.483-72.533C286.012,13.265,271.51,0,255.5,0s-30.513,13.265-40.835,37.35
		c-8.469,19.762-13.518,45.23-14.482,72.534c-0.094,0.426-0.158,0.863-0.176,1.314c-2.937,72.669-39.775,134.916-72.277,189.834
		C102.118,344.307,80,381.68,80,415.5v32c0,3.759,2.783,6.938,6.509,7.434L176,466.866V503.5c0,4.142,3.358,7.5,7.5,7.5h48
		c4.142,0,7.5-3.358,7.5-7.5V479h9v24.5c0,4.142,3.358,7.5,7.5,7.5s7.5-3.358,7.5-7.5V479h9v24.5c0,4.142,3.358,7.5,7.5,7.5h48
		c4.142,0,7.5-3.358,7.5-7.5v-36.634l89.491-11.932c3.726-0.497,6.509-3.675,6.509-7.434v-32
		C431,381.68,408.882,344.307,383.271,301.032z M376.094,318.373c-0.056,0.369-0.094,0.743-0.094,1.127v67.185
		c0,8.159-6.09,15.181-14.167,16.334l-27.467,3.924c-1.462-4.042-5.327-6.943-9.867-6.943H311V189.602
		c14.744,43.645,37.96,82.907,59.362,119.07C372.298,311.942,374.209,315.173,376.094,318.373z M303.49,415c0.003,0,0.006,0,0.01,0
		s0.006,0,0.01,0H320v45.426c0.001,0.042-0.001,0.082,0,0.124v11.476c-0.166-0.011-0.331-0.025-0.5-0.025H287v-57H303.49z
		 M224,471.49c0,0.003,0,0.006,0,0.01s0,0.006,0,0.01V472h-32.5c-0.169,0-0.334,0.014-0.5,0.025v-11.482
		c0.001-0.03-0.001-0.061,0-0.091V415h16.49c0.003,0,0.006,0,0.01,0s0.006,0,0.01,0H224V471.49z M200,189.602V400h-13.5
		c-4.54,0-8.404,2.901-9.867,6.943l-27.467-3.924C141.09,401.865,135,394.843,135,386.685V319.5c0-0.384-0.038-0.759-0.094-1.127
		c1.885-3.2,3.796-6.431,5.732-9.701C162.04,272.508,185.256,233.246,200,189.602z M95,440.934V415.5
		c0-20.806,10.376-44.569,25-71.15v42.334c0,15.575,11.627,28.981,27.045,31.184L176,422.005v29.729L95,440.934z M191,496v-9.025
		c0.166,0.011,0.331,0.025,0.5,0.025H224v9H191z M263,464V327.5c0-4.142-3.358-7.5-7.5-7.5s-7.5,3.358-7.5,7.5V464h-9v-53.5
		c0-5.79-4.71-10.5-10.5-10.5H215V119.5C215,57.917,236.344,15,255.5,15S296,57.917,296,119.5V400h-13.5
		c-5.79,0-10.5,4.71-10.5,10.5V464H263z M287,496v-9h32.5c0.169,0,0.334-0.014,0.5-0.025V496H287z M416,440.934l-81,10.8v-29.729
		l28.955-4.137C379.373,415.666,391,402.26,391,386.685v-42.334c14.624,26.581,25,50.343,25,71.149V440.934z"/>
	<path d="M287,127.5v-20.964c0-1.815-0.659-3.569-1.854-4.937C277.591,92.957,266.785,88,255.5,88s-22.091,4.957-29.646,13.6
		c-1.195,1.367-1.854,3.121-1.854,4.937V127.5c0,4.142,3.358,7.5,7.5,7.5h48C283.642,135,287,131.642,287,127.5z M272,120h-33
		v-10.444c4.546-4.246,10.315-6.556,16.5-6.556s11.954,2.31,16.5,6.556V120z"/>
</g>
<g>
</g>
<g>
</g>
<g>
</g>
<g>
</g>
<g>
</g>
<g>
</g>
<g>
</g>
<g>
</g>
<g>
</g>
<g>
</g>
<g>
</g>
<g>
</g>
<g>
</g>
<g>
</g>
<g>
</g>
</svg>
