<?xml version="1.0" encoding="utf-8"?>
<!-- Generator: Adobe Illustrator 22.0.1, SVG Export Plug-In . SVG Version: 6.00 Build 0)  -->
<svg version="1.1" id="Capa_1" xmlns="http://www.w3.org/2000/svg" xmlns:xlink="http://www.w3.org/1999/xlink" x="0px" y="0px"
	 viewBox="0 0 58 58" style="enable-background:new 0 0 58 58;" xml:space="preserve">
<style type="text/css">
	.st0{fill:none;stroke:#000000;stroke-miterlimit:10;}
</style>
<g>
	<path class="st0" d="M29,1.5c-16,0-29,11.6-29,26c0,5.3,1.8,10.2,4.8,14.3C4.4,46.6,3.3,53.2,0,56.5c0,0,9.9-1.4,16.7-5.5
		c0,0,0,0,0,0c2.8-1.8,5.5-3.7,6.1-4.1c0.3-0.4,0.9-0.5,1.3-0.3c0.3,0.2,0.5,0.5,0.5,0.8c0,0.6,0,0.8-5.6,4.4c3.1,1,6.5,1.6,10,1.6
		c16,0,29-11.6,29-26S45,1.5,29,1.5z"/>
</g>
<path d="M30.5,19.2H14.5c-0.3,0-0.5-0.2-0.5-0.5v0c0-0.3,0.2-0.5,0.5-0.5h15.9c0.3,0,0.5,0.2,0.5,0.5v0C31,19,30.8,19.2,30.5,19.2z"
	/>
<path d="M43.3,27.6H14.5c-0.3,0-0.5-0.2-0.5-0.5v0c0-0.3,0.2-0.5,0.5-0.5h28.7c0.3,0,0.5,0.2,0.5,0.5v0
	C43.8,27.3,43.6,27.6,43.3,27.6z"/>
<path d="M43.3,35.9H14.5c-0.3,0-0.5-0.2-0.5-0.5l0,0c0-0.3,0.2-0.5,0.5-0.5h28.7c0.3,0,0.5,0.2,0.5,0.5l0,0
	C43.8,35.7,43.6,35.9,43.3,35.9z"/>
</svg>
